<svg width="222" height="90" viewBox="0 0 222 90" fill="none" xmlns="http://www.w3.org/2000/svg">
<path d="M181.873 5.91821L181.873 45.9797L161.842 45.9797L141.811 45.9797L141.811 5.91821L161.842 25.9489L181.873 5.91821Z" fill="#313131"/>
<path d="M90.2974 45.9797L50.2359 45.9797L70.2666 25.949L50.2359 5.91829L90.2974 5.91829L70.2666 25.949L90.2974 45.9797Z" fill="#313131"/>
<path d="M124.632 23.0874L136.078 45.9797L116.047 45.9797L96.0167 45.9797L107.463 23.0874L116.047 5.91821L124.632 23.0874Z" fill="#313131"/>
<path d="M161.841 25.9591L181.882 5.91821V45.9999H161.886L161.841 25.9591Z" fill="#818181"/>
<path d="M70.3086 5.91821H90.3052L80.3954 15.6953L70.3086 25.9148V5.91821Z" fill="#818181"/>
<path d="M70.3086 46H90.3052L80.3954 36.2229L70.3086 26.0034V46Z" fill="#818181"/>
<path d="M116.052 5.91821L120.653 15.076L136.048 45.9557L116.052 45.9999V5.91821Z" fill="#818181"/>
<path d="M160.067 68.7539V65.8388C159.415 65.6861 158.846 65.4216 158.357 65.0451C157.879 64.6584 157.508 64.1751 157.243 63.5951C156.978 63.005 156.846 62.3283 156.846 61.5652V58.0701H159.349V61.7026C159.349 62.0892 159.431 62.4454 159.593 62.771C159.756 63.0864 159.985 63.3408 160.28 63.5341C160.586 63.7172 160.942 63.8088 161.349 63.8088C161.756 63.8088 162.107 63.7172 162.402 63.5341C162.707 63.3408 162.941 63.0864 163.104 62.771C163.267 62.4454 163.348 62.0892 163.348 61.7026V58.0701H165.851V61.5652C165.851 62.3283 165.719 63.005 165.454 63.5951C165.19 64.1751 164.813 64.6584 164.325 65.0451C163.836 65.4317 163.267 65.6963 162.615 65.8388V68.7539H160.067Z" fill="#313131"/>
<path d="M146.444 68.7539V58.0701H150.366C151.496 58.0701 152.473 58.299 153.297 58.7569C154.131 59.2148 154.777 59.8456 155.235 60.6495C155.703 61.4533 155.937 62.3741 155.937 63.412C155.937 64.4499 155.703 65.3707 155.235 66.1745C154.777 66.9784 154.131 67.6092 153.297 68.0671C152.473 68.525 151.496 68.7539 150.366 68.7539H146.444ZM149.008 66.6171H150.305C150.895 66.6171 151.419 66.49 151.877 66.2356C152.345 65.971 152.712 65.5996 152.976 65.1214C153.241 64.6432 153.373 64.0734 153.373 63.412C153.373 62.7506 153.241 62.1808 152.976 61.7026C152.712 61.2243 152.345 60.858 151.877 60.6037C151.419 60.3391 150.895 60.2068 150.305 60.2068H149.008V66.6171Z" fill="#313131"/>
<path d="M135.593 68.7539V58.0701H139.516C140.645 58.0701 141.622 58.299 142.446 58.7569C143.281 59.2148 143.927 59.8456 144.385 60.6495C144.853 61.4533 145.087 62.3741 145.087 63.412C145.087 64.4499 144.853 65.3707 144.385 66.1745C143.927 66.9784 143.281 67.6092 142.446 68.0671C141.622 68.525 140.645 68.7539 139.516 68.7539H135.593ZM138.157 66.6171H139.455C140.045 66.6171 140.569 66.49 141.027 66.2356C141.495 65.971 141.861 65.5996 142.126 65.1214C142.39 64.6432 142.522 64.0734 142.522 63.412C142.522 62.7506 142.39 62.1808 142.126 61.7026C141.861 61.2243 141.495 60.858 141.027 60.6037C140.569 60.3391 140.045 60.2068 139.455 60.2068H138.157V66.6171Z" fill="#313131"/>
<path d="M129.245 68.9371C128.359 68.9371 127.571 68.759 126.879 68.4029C126.197 68.0467 125.663 67.538 125.276 66.8766C124.89 66.2152 124.696 65.4267 124.696 64.5109V58.0701H127.23V64.6483C127.23 65.0451 127.311 65.4063 127.474 65.7319C127.637 66.0473 127.871 66.3017 128.176 66.495C128.481 66.6782 128.838 66.7698 129.245 66.7698C129.662 66.7698 130.018 66.6782 130.313 66.495C130.618 66.3017 130.852 66.0473 131.015 65.7319C131.178 65.4063 131.259 65.0451 131.259 64.6483V58.0701H133.793V64.5109C133.793 65.4267 133.594 66.2152 133.198 66.8766C132.811 67.538 132.277 68.0467 131.595 68.4029C130.913 68.759 130.13 68.9371 129.245 68.9371Z" fill="#313131"/>
<path d="M113.906 68.7539V58.0701H120.103C120.632 58.0701 121.11 58.1871 121.538 58.4211C121.975 58.6551 122.321 58.9807 122.575 59.3979C122.84 59.8151 122.972 60.3086 122.972 60.8784C122.972 61.2142 122.906 61.5347 122.774 61.8399C122.652 62.1452 122.474 62.4148 122.24 62.6489C122.016 62.8829 121.756 63.0711 121.461 63.2136C121.807 63.356 122.112 63.5595 122.377 63.8241C122.652 64.0886 122.865 64.3939 123.018 64.7398C123.181 65.0858 123.262 65.4572 123.262 65.854C123.262 66.434 123.125 66.9427 122.85 67.3803C122.586 67.8178 122.229 68.1587 121.782 68.4029C121.334 68.6369 120.835 68.7539 120.286 68.7539H113.906ZM116.47 66.6324H119.614C119.828 66.6324 120.016 66.5815 120.179 66.4798C120.352 66.378 120.49 66.2407 120.591 66.0677C120.693 65.8947 120.744 65.7065 120.744 65.503C120.744 65.2893 120.693 65.1011 120.591 64.9383C120.49 64.7653 120.352 64.6279 120.179 64.5262C120.016 64.4244 119.828 64.3735 119.614 64.3735H116.47V66.6324ZM116.47 62.3283H119.355C119.559 62.3283 119.737 62.2826 119.889 62.191C120.052 62.0892 120.179 61.962 120.271 61.8094C120.362 61.6466 120.408 61.4686 120.408 61.2752C120.408 61.0717 120.362 60.8937 120.271 60.741C120.179 60.5782 120.052 60.451 119.889 60.3595C119.737 60.2577 119.559 60.2068 119.355 60.2068H116.47V62.3283Z" fill="#313131"/>
<path d="M101.056 68.7539V58.0701H105.65C106.362 58.0701 107.013 58.2329 107.603 58.5585C108.204 58.8841 108.682 59.3369 109.038 59.9168C109.394 60.4867 109.572 61.148 109.572 61.901C109.572 62.6539 109.394 63.3255 109.038 63.9157C108.682 64.4956 108.209 64.9484 107.619 65.274C107.028 65.5996 106.372 65.7624 105.65 65.7624H103.62V68.7539H101.056ZM103.62 63.6104H105.36C105.665 63.6104 105.94 63.5443 106.184 63.412C106.428 63.2797 106.627 63.0864 106.779 62.832C106.932 62.5776 107.008 62.2724 107.008 61.9163C107.008 61.5601 106.932 61.2549 106.779 61.0005C106.627 60.7461 106.423 60.5528 106.169 60.4205C105.924 60.2781 105.655 60.2068 105.36 60.2068H103.62V63.6104Z" fill="#313131"/>
<path d="M95.0565 68.7539C94.4562 68.7539 93.9118 68.6166 93.4234 68.3418C92.935 68.0569 92.5432 67.6804 92.2482 67.2124C91.9633 66.7342 91.8208 66.1949 91.8208 65.5946C91.8208 65.1468 91.9175 64.7297 92.1108 64.343C92.3143 63.9462 92.5839 63.6053 92.9197 63.3204C92.5941 63.0457 92.3346 62.7201 92.1413 62.3436C91.9582 61.9671 91.8666 61.5703 91.8666 61.1531C91.8666 60.563 92.009 60.0389 92.2939 59.5811C92.5788 59.113 92.9604 58.7467 93.4386 58.4822C93.9169 58.2074 94.446 58.0701 95.026 58.0701H99.5284V60.2221L95.4228 60.2068C95.2295 60.2068 95.0514 60.2526 94.8886 60.3442C94.7258 60.4358 94.5935 60.5579 94.4918 60.7105C94.4002 60.8631 94.3544 61.0412 94.3544 61.2447C94.3544 61.438 94.4002 61.6161 94.4918 61.7789C94.5935 61.9315 94.7258 62.0536 94.8886 62.1452C95.0514 62.2266 95.2295 62.2673 95.4228 62.2673H99.0095V64.4041H95.4991C95.2854 64.4041 95.0921 64.4549 94.9191 64.5567C94.7461 64.6584 94.6088 64.7907 94.507 64.9535C94.4053 65.1163 94.3544 65.3046 94.3544 65.5182C94.3544 65.7217 94.4053 65.91 94.507 66.083C94.6088 66.2458 94.7461 66.3729 94.9191 66.4645C95.0921 66.5561 95.2854 66.6019 95.4991 66.6019H99.5284V68.7539H95.0565Z" fill="#313131"/>
<path d="M81.7686 68.7539V58.0701H86.6526C87.375 58.0701 88.0313 58.2278 88.6215 58.5432C89.2218 58.8586 89.695 59.2962 90.0409 59.8558C90.397 60.4154 90.5751 61.0615 90.5751 61.7942C90.5751 62.4759 90.4123 63.0915 90.0867 63.6409C89.7611 64.1802 89.3337 64.6177 88.8046 64.9535L89.6593 66.4035C89.7102 66.4747 89.7662 66.5307 89.8272 66.5714C89.8985 66.6121 89.99 66.6324 90.102 66.6324H91.0482V68.7539H89.5525C89.0946 68.7539 88.6774 68.6471 88.301 68.4334C87.9245 68.2095 87.6294 67.9196 87.4157 67.5634L86.271 65.5335C86.1998 65.5335 86.1235 65.5335 86.0421 65.5335C85.9709 65.5335 85.8946 65.5335 85.8132 65.5335H84.3327V68.7539H81.7686ZM84.3327 63.412H86.3626C86.6577 63.412 86.9324 63.3509 87.1868 63.2288C87.4412 63.0966 87.6396 62.9134 87.782 62.6794C87.9347 62.4352 88.011 62.1452 88.011 61.8094C88.011 61.4736 87.9347 61.1887 87.782 60.9547C87.6294 60.7105 87.4259 60.5274 87.1715 60.4053C86.9273 60.273 86.6577 60.2068 86.3626 60.2068H84.3327V63.412Z" fill="#313131"/>
<path d="M71.9463 68.7539V58.0701H76.5403C77.2526 58.0701 77.9038 58.2329 78.494 58.5585C79.0943 58.8841 79.5725 59.3369 79.9286 59.9168C80.2848 60.4867 80.4628 61.148 80.4628 61.901C80.4628 62.6539 80.2848 63.3255 79.9286 63.9157C79.5725 64.4956 79.0994 64.9484 78.5092 65.274C77.9191 65.5996 77.2628 65.7624 76.5403 65.7624H74.5104V68.7539H71.9463ZM74.5104 63.6104H76.2504C76.5556 63.6104 76.8303 63.5443 77.0745 63.412C77.3187 63.2797 77.5172 63.0864 77.6698 62.832C77.8224 62.5776 77.8987 62.2724 77.8987 61.9163C77.8987 61.5601 77.8224 61.2549 77.6698 61.0005C77.5172 60.7461 77.3137 60.5528 77.0593 60.4205C76.8151 60.2781 76.5454 60.2068 76.2504 60.2068H74.5104V63.6104Z" fill="#313131"/>
</svg>
